 <svg width="133" height="134" viewBox="0 0 133 134" fill="none" xmlns="http://www.w3.org/2000/svg">
<path d="M82.9303 93.1477H97.2311L74.4021 33.9003H58.5906L35.7617 93.1477H50.0635L53.7942 83.1118H75.3643L71.4597 72.0066H57.2573L66.4961 46.5137L82.9303 93.1477ZM130.088 49.2825C129.58 47.4523 127.69 46.3773 125.852 46.8876C124.021 47.3959 122.948 49.2923 123.456 51.123C124.892 56.291 125.619 61.633 125.619 67.0003C125.619 99.7362 98.9862 126.368 66.2503 126.368C33.5143 126.368 6.88226 99.7362 6.88226 67.0003C6.88226 34.2638 33.5143 7.63175 66.2503 7.63175C80.1178 7.63175 93.5361 12.5581 104.126 21.3248C103.714 22.3082 103.485 23.3874 103.485 24.5199C103.485 29.0927 107.192 32.7996 111.765 32.7996C116.338 32.7996 120.045 29.0927 120.045 24.5199C120.045 19.947 116.338 16.2401 111.765 16.2401C110.885 16.2401 110.038 16.3804 109.242 16.6351C97.3165 6.47237 82.0432 0.75 66.2503 0.75C29.72 0.75 0 30.4695 0 67.0003C0 103.531 29.72 133.25 66.2503 133.25C102.781 133.25 132.501 103.531 132.501 67.0003C132.501 61.0108 131.689 55.0493 130.088 49.2825Z" fill="#112B49"/>
</svg>
