<svg width="135" height="148" viewBox="0 0 135 148" fill="none" xmlns="http://www.w3.org/2000/svg">
<g clip-path="url(#clip0_29_51)">
<path d="M7.21347 116.631C8.51127 116.37 9.84239 116.424 11.1548 116.492C14.2649 116.876 17.3834 118.792 18.4666 121.825C18.6874 122.336 18.602 122.9 18.6145 123.44C18.0271 123.724 17.3438 123.647 16.7147 123.569C16.298 122.946 16.1085 122.188 15.6856 121.559C15.0607 120.496 14.0191 119.801 12.9775 119.23C12.8921 119.214 12.7192 119.178 12.6317 119.164C11.5693 118.637 10.359 118.682 9.20496 118.616C8.61751 118.709 7.99465 118.616 7.43637 118.844C5.00534 119.201 3.11177 121.327 2.70139 123.683C2.36809 124.563 2.45349 125.522 2.41183 126.441C2.41183 128.391 2.38892 130.338 2.42641 132.285C2.40331 133.819 2.79858 135.33 3.57006 136.658C4.23558 137.818 5.3169 138.684 6.59686 139.083C7.10098 139.348 7.69884 139.265 8.21546 139.498C9.48826 139.562 10.7923 139.618 12.0193 139.215C14.1024 138.717 15.7335 137.048 16.4147 135.064C16.4897 134.522 16.6772 134.001 16.748 133.459C16.8063 132.451 16.7855 131.44 16.7834 130.431C14.5732 130.419 12.363 130.458 10.1549 130.41L9.97363 130.034C9.92364 129.852 9.87156 129.671 9.81531 129.493C9.85122 129.232 9.9041 128.973 9.97363 128.718C10.0965 128.59 10.2174 128.459 10.3382 128.33C13.1088 128.33 15.8814 128.31 18.6541 128.33C18.7853 128.488 18.9186 128.646 19.052 128.802C19.0707 130.018 19.052 131.232 19.052 132.449C19.0838 132.831 19.0457 133.217 18.9395 133.586C18.8999 133.958 18.8811 134.331 18.8478 134.703C18.6562 135.118 18.6395 135.595 18.452 136.017C17.6188 138.452 15.5919 140.484 13.0942 141.206C11.8964 141.684 10.5944 141.665 9.34452 141.773C8.65501 141.654 7.95299 141.665 7.26138 141.594C6.69894 141.387 6.09691 141.316 5.53446 141.104C4.48684 140.659 3.52093 140.043 2.67639 139.282C1.8128 138.343 1.13311 137.252 0.67241 136.065C0.551588 135.442 0.330775 134.848 0.280779 134.215C0.00788784 133.385 0.16204 132.492 0.0995462 131.635C-0.067105 130.29 0.028719 128.936 0.00788755 127.579C0.0682986 125.779 0.0870474 123.948 0.691158 122.23C1.29944 120.426 2.47433 118.788 4.13251 117.802C5.08768 117.245 6.12872 116.85 7.21347 116.631Z" fill="#DB2090"/>
<path d="M102.601 116.631C103.79 116.36 105.023 116.424 106.234 116.497C106.571 116.557 106.917 116.609 107.254 116.692C108.757 116.954 110.153 117.639 111.279 118.666C112.562 119.884 113.373 121.524 113.762 123.232C113.956 124.403 114.191 125.572 114.143 126.761C114.106 129.364 114.329 131.994 113.833 134.566C113.573 136.258 112.916 137.972 111.702 139.215C111.702 139.35 111.702 139.489 111.702 139.631C112.46 140.54 113.052 141.578 113.827 142.476C113.841 142.879 113.885 143.332 113.502 143.585C113.018 143.585 112.535 143.585 112.043 143.57C111.002 142.887 110.464 141.702 109.687 140.758C108.829 141.09 107.956 141.426 107.031 141.509C106.515 141.764 105.913 141.584 105.365 141.717C104.669 141.86 103.975 141.638 103.282 141.638C102.384 141.638 101.53 141.326 100.68 141.079C98.8635 140.413 97.2719 139.054 96.5137 137.266C95.9908 136.166 95.7575 134.96 95.5575 133.769C95.4929 132.976 95.5888 132.17 95.42 131.386C95.345 130.327 95.42 129.264 95.3909 128.206C95.4159 127.614 95.3013 127 95.4971 126.425C95.5596 125.36 95.445 124.27 95.7887 123.241C96.0123 122.057 96.4875 120.935 97.1824 119.95C97.8773 118.964 98.7758 118.139 99.8175 117.528C100.683 117.063 101.626 116.759 102.601 116.631ZM100.578 119.822C99.6509 120.418 99.0613 121.36 98.5489 122.313C98.326 122.979 98.0448 123.635 97.9552 124.335C97.874 124.82 97.8615 125.32 97.7323 125.788C97.6573 127.463 97.6969 129.142 97.6927 130.819C97.7261 131.508 97.6344 132.212 97.8011 132.895C97.8948 133.395 97.9656 133.897 98.0427 134.402C98.3459 135.551 98.8858 136.625 99.628 137.555C100.338 138.333 101.282 138.842 102.234 139.267C104.109 139.641 106.127 139.749 107.919 138.977C109.271 138.337 110.348 137.237 110.958 135.876C111.065 135.584 111.191 135.299 111.333 135.022C111.366 134.815 111.402 134.607 111.435 134.416C111.708 133.846 111.689 133.208 111.735 132.592C111.927 132.135 111.833 131.631 111.86 131.151C111.923 129.468 111.86 127.784 111.86 126.103C111.846 125.897 111.806 125.694 111.739 125.499C111.644 123.818 111.114 122.097 110.021 120.783C108.344 118.792 105.473 118.317 103.023 118.772C102.159 119.002 101.303 119.29 100.578 119.822Z" fill="#DB2090"/>
<path d="M75.3637 116.565C76.0051 116.537 76.6475 116.541 77.2885 116.578C77.3739 119.484 77.2885 122.39 77.3343 125.296C77.4468 125.559 77.5968 125.254 77.6301 125.121C78.2947 124.457 78.9904 123.801 79.8362 123.373C80.1683 123.262 80.4926 123.129 80.8069 122.975C81.1152 122.94 81.4319 122.913 81.7381 122.873C82.613 122.666 83.5317 122.755 84.4212 122.803C85.3794 122.962 86.3564 123.183 87.1813 123.72C88.6395 124.623 89.6478 126.12 90.1269 127.749C90.2248 128.505 90.5019 129.237 90.479 130.01C90.5123 133.426 90.479 136.841 90.4956 140.258C90.4994 140.613 90.4321 140.966 90.2977 141.295C89.7269 141.331 89.1562 141.329 88.5875 141.327C88.4271 141.109 88.2479 140.878 88.2646 140.592C88.25 137.227 88.2646 133.86 88.2542 130.495C88.2312 130.01 88.2854 129.501 88.0917 129.042C87.9623 128.161 87.5998 127.33 87.0416 126.634C86.4833 125.939 85.7493 125.403 84.9149 125.084L84.5295 125.028C83.9046 124.795 83.2296 124.889 82.5818 124.866C81.867 124.86 81.159 125.005 80.5045 125.291C79.8499 125.577 79.2637 125.998 78.7842 126.527C77.8684 127.646 77.3897 129.058 77.4364 130.502C77.4364 133.92 77.4364 137.341 77.4364 140.762C77.3198 140.943 77.2031 141.123 77.0885 141.304C76.4532 141.25 75.5449 141.615 75.1637 140.924C75.1491 133.057 75.1637 125.192 75.1637 117.329C75.1637 117.061 75.2325 116.798 75.3637 116.565Z" fill="#DB2090"/>
<path d="M120.103 116.781C120.557 116.768 121.014 116.766 121.47 116.762L121.957 117.148C121.98 124.499 121.957 131.849 121.976 139.197C126.03 139.213 130.084 139.197 134.139 139.197C134.854 139.112 135.058 139.983 134.987 140.525C134.914 140.684 134.86 140.85 134.825 141.021C134.697 141.159 134.539 141.266 134.364 141.334C134.189 141.402 134 141.43 133.812 141.416C129.731 141.416 125.649 141.416 121.568 141.416C120.92 141.387 120.109 141.623 119.707 140.949C119.682 135.948 119.707 130.948 119.707 125.945C119.726 123.019 119.668 120.09 119.739 117.161C119.853 117.042 119.976 116.91 120.103 116.781Z" fill="#DB2090"/>
<path d="M39.5984 123.149C40.6671 122.734 41.8336 122.734 42.9627 122.761C44.2705 122.764 45.5547 123.108 46.6874 123.76C47.9372 124.59 48.9205 125.887 49.1184 127.396C49.2954 127.923 49.2538 128.486 49.2684 129.03C49.2684 132.716 49.2684 136.401 49.2684 140.085C49.2684 140.411 49.2475 140.741 49.2225 141.067C49.0684 141.183 48.9205 141.304 48.7726 141.424C48.2039 141.47 47.5914 141.482 47.1269 141.098C47.1123 140.913 47.0956 140.725 47.0769 140.54C47.0163 140.21 46.9814 139.875 46.9727 139.539C46.4915 139.643 46.2124 140.056 45.8374 140.33C45.415 140.625 44.965 140.879 44.4938 141.088L43.9584 141.273C43.671 141.362 43.3772 141.434 43.0814 141.501C41.4536 141.907 39.742 141.827 38.159 141.273C36.7008 140.669 35.3926 139.573 34.803 138.086C34.4427 137.237 34.5072 136.297 34.5947 135.402C34.8447 134.582 35.2197 133.775 35.855 133.177C36.53 132.478 37.3924 132.009 38.2673 131.604C38.7756 131.396 39.3089 131.259 39.8234 131.093C40.3109 130.975 40.815 130.931 41.2941 130.776C41.7253 130.734 42.1565 130.717 42.5898 130.678C43.3793 130.394 44.2355 130.497 45.0292 130.275C45.4687 130.24 45.9062 130.213 46.3416 130.134C46.5737 130.101 46.8039 130.055 47.0311 129.997C47.1628 129.368 47.1471 128.718 46.9852 128.096C46.9187 127.431 46.6595 126.8 46.2394 126.279C45.8192 125.758 45.2562 125.37 44.6188 125.163C43.1282 124.676 41.5188 124.689 40.0359 125.198C39.3006 125.506 38.6638 126.009 38.1944 126.651C37.9715 127.006 37.9298 127.469 37.5965 127.753C37.2903 128.075 36.807 127.961 36.4112 127.961C36.2528 127.845 36.0707 127.766 35.8779 127.728C35.83 127.162 35.7259 126.543 36.0238 126.022C36.7216 124.604 38.1152 123.633 39.5984 123.149ZM44.7813 132.328C44.3459 132.38 43.8939 132.359 43.4793 132.519C42.5877 132.519 41.7378 132.801 40.8608 132.92C39.6651 133.26 38.3985 133.617 37.4903 134.514C37.0924 134.89 36.9403 135.423 36.7216 135.907C36.6928 136.477 36.7992 137.046 37.032 137.567C37.5361 138.547 38.5506 139.126 39.5588 139.477C41.192 139.784 42.9919 139.695 44.4167 138.759C45.5541 138.101 46.2916 136.934 46.6936 135.714C47.1102 134.541 47.1394 133.285 47.1102 132.052C46.3145 131.988 45.5583 132.247 44.7813 132.328Z" fill="#DB2090"/>
<path d="M57.0591 125.287C57.6487 124.565 58.3799 123.97 59.208 123.539C60.0361 123.108 60.9437 122.85 61.8753 122.78C63.069 122.736 64.3001 122.705 65.4417 123.118C66.4775 123.449 67.4159 124.028 68.1743 124.805C68.9328 125.581 69.488 126.532 69.7913 127.573C70.0516 128.476 70.3308 129.391 70.31 130.342C70.5506 131.675 70.5506 133.041 70.31 134.375C70.245 135.498 69.9798 136.601 69.5267 137.632C69.1178 138.622 68.4752 139.499 67.6535 140.189C66.8317 140.879 65.855 141.361 64.8063 141.594C63.9876 141.65 63.171 141.866 62.3503 141.738C61.8774 141.669 61.4024 141.642 60.9296 141.588C60.5484 141.437 60.1359 141.38 59.7609 141.208C58.9168 140.855 58.1588 140.324 57.5382 139.653C57.4179 139.504 57.2554 139.393 57.0716 139.336C57.0362 139.274 56.9695 139.143 56.9362 139.078C56.8987 141.798 56.9362 144.519 56.9216 147.24C56.9122 147.501 56.8408 147.756 56.7133 147.983C56.1474 148.014 55.5801 148.005 55.0155 147.956C54.9635 147.855 54.8551 147.651 54.8072 147.541C54.7635 139.521 54.8072 131.496 54.7822 123.463C55.1447 122.962 55.7967 123.062 56.3383 123.093C56.7237 123.072 57.0112 123.446 57.0216 123.803C57.0445 124.308 57.0341 124.795 57.0591 125.287ZM60.7379 125.096C58.4985 125.987 57.0403 128.312 57.0258 130.682C56.8591 131.199 56.9258 131.745 56.9174 132.276C56.9174 132.864 56.857 133.468 57.032 134.041C57.0563 135.154 57.3902 136.239 57.9965 137.175C58.686 138.302 59.8484 139.043 61.0754 139.475C62.5211 139.745 64.0959 139.726 65.4104 139C66.5561 138.346 67.3415 137.219 67.7727 135.994C67.8417 135.506 67.9539 135.026 68.1081 134.558C68.131 134.117 68.1081 133.663 68.2768 133.248C68.3782 131.563 68.1664 129.874 67.6519 128.266C67.3756 127.443 66.8907 126.704 66.244 126.122C65.5973 125.54 64.8107 125.135 63.9605 124.945C62.8961 124.665 61.7899 124.829 60.7379 125.096Z" fill="#DB2090"/>
<path d="M28.9077 123.297C30.128 123.077 31.3726 123.024 32.6073 123.139C33.326 123.463 33.1177 124.445 32.8969 125.034C31.7741 125.426 30.5617 125.024 29.4222 125.337C27.8182 125.621 26.6246 126.998 26.2663 128.546C26.11 132.554 26.2663 136.571 26.1829 140.585C26.1392 140.918 25.8996 141.31 25.5205 141.314C25.0686 141.346 24.6149 141.338 24.1644 141.291C24.0384 141.018 23.9676 140.722 23.9561 140.421C23.9561 135.054 23.9561 129.686 23.9561 124.318C23.9561 123.959 23.9665 123.529 24.281 123.29C24.681 123.029 25.208 123.05 25.6517 123.172C26.485 123.606 26.0684 124.662 26.2954 125.397C26.3267 125.285 26.3892 125.059 26.4225 124.947C27.0533 124.147 27.924 123.569 28.9077 123.297Z" fill="#DB2090"/>
<path d="M29.5866 77.9439L25.8203 75.7768L67.7914 3.3378L71.5598 5.50072L29.5866 77.9439Z" fill="#E10098"/>
<path d="M24.9619 69.9814H108.898V74.3155H24.9619V69.9814Z" fill="#E10098"/>
<path d="M68.6057 96.5716L26.6221 72.4162L28.7969 68.6633L70.7805 92.8166L68.6057 96.5716ZM105.077 33.6186L63.0937 9.46537L65.2685 5.70828L107.252 29.8657L105.077 33.6186Z" fill="#E10098"/>
<path d="M28.8097 33.602L26.6328 29.8491L68.6185 5.69376L70.7933 9.44461L28.8097 33.602Z" fill="#E10098"/>
<path d="M104.305 77.9439L62.3359 5.50069L66.1022 3.33362L108.071 75.7685L104.305 77.9439ZM28.2891 26.9742H32.6407V75.2828H28.2891V26.9742ZM101.247 26.9742H105.596V75.2828H101.247V26.9742Z" fill="#E10098"/>
<path d="M67.8666 94.7366L65.9668 91.457L102.48 70.4505L104.372 73.7281L67.8666 94.7366Z" fill="#E10098"/>
<path d="M111.363 76.6985C110.459 78.2608 109.11 79.521 107.487 80.3195C105.864 81.118 104.04 81.4191 102.245 81.1846C100.451 80.9502 98.7662 80.1907 97.4048 79.0023C96.0434 77.8138 95.0662 76.2498 94.5968 74.5079C94.1275 72.7661 94.187 70.9247 94.768 69.2166C95.3489 67.5085 96.4251 66.0104 97.8605 64.9118C99.2958 63.8131 101.026 63.1633 102.832 63.0444C104.638 62.9256 106.439 63.3431 108.007 64.244C110.106 65.4549 111.638 67.4458 112.267 69.7803C112.896 72.1148 112.571 74.6026 111.363 76.6985ZM38.3528 34.6773C37.4484 36.2396 36.0995 37.4996 34.4765 38.2979C32.8535 39.0963 31.0293 39.3971 29.2347 39.1624C27.4401 38.9277 25.7557 38.1679 24.3944 36.9793C23.0331 35.7906 22.0562 34.2264 21.5871 32.4845C21.118 30.7425 21.1778 28.9011 21.7591 27.1931C22.3403 25.485 23.4168 23.9871 24.8524 22.8887C26.288 21.7903 28.0182 21.1407 29.8243 21.0222C31.6304 20.9037 33.4312 21.3215 34.9989 22.2228C37.0981 23.4341 38.6297 25.4251 39.2584 27.7595C39.8871 30.094 39.5614 32.5816 38.3528 34.6773ZM22.5251 76.6985C21.6205 75.1363 21.2012 73.3419 21.3202 71.5422C21.4391 69.7426 22.091 68.0185 23.1933 66.588C24.2956 65.1575 25.7989 64.0848 27.513 63.5057C29.2272 62.9265 31.0752 62.8669 32.8233 63.3343C34.5715 63.8017 36.1413 64.7752 37.3342 66.1316C38.5271 67.4881 39.2895 69.1665 39.525 70.9547C39.7606 72.743 39.4587 74.5606 38.6575 76.1779C37.8563 77.7951 36.5918 79.1393 35.0239 80.0404C32.9208 81.2447 30.4243 81.5692 28.0815 80.9428C25.7387 80.3164 23.7406 78.7901 22.5251 76.6985ZM95.5329 34.6773C94.6284 33.1151 94.2091 31.3207 94.328 29.521C94.4469 27.7214 95.0988 25.9973 96.2011 24.5668C97.3034 23.1363 98.8067 22.0636 100.521 21.4845C102.235 20.9053 104.083 20.8457 105.831 21.3131C107.579 21.7805 109.149 22.754 110.342 24.1104C111.535 25.4669 112.297 27.1453 112.533 28.9335C112.768 30.7218 112.467 32.5394 111.665 34.1567C110.864 35.7739 109.6 37.1181 108.032 38.0192C105.929 39.2235 103.432 39.548 101.089 38.9216C98.7465 38.2952 96.7485 36.7689 95.5329 34.6773ZM66.9439 102.257C65.1347 102.257 63.366 101.723 61.8615 100.722C60.357 99.7207 59.1842 98.2973 58.4916 96.6319C57.799 94.9664 57.6175 93.1337 57.9702 91.3656C58.3229 89.5974 59.1939 87.9731 60.4731 86.6982C61.7523 85.4233 63.3821 84.555 65.1565 84.2032C66.9309 83.8513 68.7702 84.0317 70.4417 84.7215C72.1133 85.4113 73.542 86.5795 74.5472 88.0785C75.5523 89.5774 76.0889 91.3397 76.0889 93.1424C76.09 94.3395 75.8542 95.5251 75.395 96.6312C74.9359 97.7374 74.2623 98.7426 73.4129 99.5891C72.5636 100.436 71.555 101.107 70.445 101.565C69.3349 102.023 68.1452 102.258 66.9439 102.257ZM66.9439 18.227C65.1347 18.2275 63.366 17.6932 61.8615 16.692C60.357 15.6907 59.1842 14.2673 58.4916 12.6019C57.799 10.9365 57.6175 9.10379 57.9702 7.3356C58.3229 5.56741 59.1939 3.94316 60.4731 2.66826C61.7523 1.39335 63.3821 0.52507 65.1565 0.173215C66.9309 -0.178641 68.7702 0.00173628 70.4417 0.691535C72.1133 1.38133 73.542 2.54957 74.5472 4.04849C75.5523 5.54742 76.0889 7.30971 76.0889 9.11249C76.09 10.3096 75.8542 11.4951 75.395 12.6013C74.9359 13.7075 74.2623 14.7126 73.4129 15.5592C72.5636 16.4057 71.555 17.0771 70.445 17.5349C69.3349 17.9927 68.1452 18.2279 66.9439 18.227Z" fill="#E10098"/>
</g>
<defs>
<clipPath id="clip0_29_51">
<rect width="135" height="148" fill="white"/>
</clipPath>
</defs>
</svg>
