<svg width="182" height="182" viewBox="0 0 182 182" fill="none" xmlns="http://www.w3.org/2000/svg">
<path d="M89.9729 146.487C89.3568 146.487 88.7817 146.322 88.2474 146.035L82.7835 142.789C81.9617 142.337 82.3726 142.173 82.6193 142.091C83.7283 141.721 83.9338 141.639 85.0841 140.982C85.2074 140.899 85.372 140.941 85.495 141.023L89.6856 143.529C89.8499 143.611 90.0553 143.611 90.1783 143.529L106.571 134.038C106.735 133.956 106.817 133.792 106.817 133.587V114.647C106.817 114.441 106.735 114.278 106.571 114.195L90.1783 104.746C90.0141 104.664 89.8086 104.664 89.6856 104.746L73.2932 114.195C73.129 114.277 73.0465 114.483 73.0465 114.647V133.586C73.0465 133.751 73.129 133.956 73.2932 134.038L77.7714 136.627C80.1953 137.859 81.7153 136.421 81.7153 134.983V116.29C81.7153 116.044 81.9208 115.797 82.2084 115.797H84.3035C84.5502 115.797 84.7965 116.003 84.7965 116.29V134.983C84.7965 138.229 83.0298 140.119 79.9486 140.119C79.0038 140.119 78.2644 140.119 76.1689 139.091L71.8553 136.627C70.7871 136.011 70.1299 134.86 70.1299 133.627V114.688C70.1299 113.456 70.7871 112.305 71.8553 111.689L88.2474 102.199C89.2747 101.624 90.6717 101.624 91.6987 102.199L108.091 111.689C109.159 112.305 109.817 113.456 109.817 114.688V133.627C109.817 134.86 109.159 136.011 108.091 136.627L91.6987 146.117C91.1644 146.364 90.5484 146.487 89.9732 146.487H89.9729ZM95.0262 133.463C87.8368 133.463 86.3577 130.177 86.3577 127.383C86.3577 127.136 86.5632 126.89 86.8508 126.89H88.9872C89.2335 126.89 89.4389 127.054 89.4389 127.301C89.7678 129.478 90.7126 130.546 95.0674 130.546C98.5183 130.546 99.9978 129.766 99.9978 127.917C99.9978 126.849 99.5865 126.068 94.2047 125.534C89.7265 125.082 86.9329 124.096 86.9329 120.522C86.9329 117.194 89.7269 115.222 94.4102 115.222C99.6686 115.222 102.257 117.03 102.586 120.973C102.586 121.097 102.545 121.22 102.463 121.344C102.38 121.426 102.257 121.508 102.134 121.508H99.9974C99.792 121.508 99.5865 121.344 99.5456 121.138C99.0526 118.879 97.779 118.139 94.4102 118.139C90.6305 118.139 90.1783 119.454 90.1783 120.44C90.1783 121.631 90.7126 122.001 95.8068 122.658C100.86 123.316 103.243 124.261 103.243 127.794C103.202 131.409 100.244 133.463 95.0262 133.463Z" fill="#539E43"/>
<path d="M39.1114 72.4132C39.1114 71.6739 38.7005 70.975 38.0433 70.6053L20.6239 60.5811C20.3359 60.4165 20.0075 60.3344 19.679 60.2932H19.5144C19.186 60.2932 18.8572 60.4165 18.5696 60.5811L1.15021 70.6053C0.492598 70.975 0.0820312 71.6735 0.0820312 72.4132L0.123266 99.3638C0.123266 99.7335 0.328727 100.103 0.65718 100.268C0.985988 100.473 1.39655 100.473 1.68448 100.268L12.0375 94.3517C12.6948 93.982 13.1057 93.2835 13.1057 92.5441V79.9314C13.1057 79.192 13.5163 78.4935 14.1739 78.1239L18.5696 75.5766C18.8984 75.3711 19.2681 75.2886 19.6378 75.2886C20.0075 75.2886 20.3772 75.3711 20.6651 75.5766L25.0608 78.1239C25.7184 78.4935 26.129 79.1917 26.129 79.9314V92.5441C26.129 93.2835 26.5399 93.982 27.1972 94.3517L37.5502 100.268C37.879 100.473 38.2896 100.473 38.6184 100.268C38.9472 100.103 39.1527 99.7335 39.1527 99.3638L39.1114 72.4132ZM122.84 35.3148C122.511 35.1502 122.1 35.1502 121.812 35.3148C121.484 35.5202 121.278 35.8487 121.278 36.2184V62.9229C121.278 63.1693 121.155 63.4156 120.909 63.5802C120.662 63.7032 120.416 63.7032 120.169 63.5802L115.814 61.0742C115.495 60.8924 115.134 60.7968 114.767 60.7968C114.399 60.7968 114.038 60.8924 113.719 61.0742L96.2996 71.1396C95.6423 71.5093 95.2314 72.2078 95.2314 72.9472V93.0368C95.2314 93.7762 95.6423 94.4751 96.2996 94.8447L113.719 104.91C114.038 105.092 114.399 105.188 114.767 105.188C115.134 105.188 115.495 105.092 115.814 104.91L133.234 94.8447C133.891 94.4751 134.302 93.7766 134.302 93.0368V42.9563C134.302 42.1757 133.891 41.4775 133.234 41.1075L122.84 35.3148H122.84ZM121.238 86.4226C121.238 86.6281 121.155 86.7923 120.991 86.8744L115.034 90.3253C114.951 90.3659 114.859 90.387 114.767 90.387C114.674 90.387 114.583 90.3659 114.5 90.3253L108.543 86.8744C108.378 86.7923 108.296 86.5868 108.296 86.4226V79.5205C108.296 79.315 108.378 79.1508 108.543 79.0687L114.5 75.6174C114.583 75.5769 114.674 75.5558 114.767 75.5558C114.859 75.5558 114.951 75.5769 115.034 75.6174L120.991 79.0687C121.155 79.1504 121.238 79.3563 121.238 79.5205V86.4226ZM180.808 79.3563C181.466 78.9866 181.836 78.2881 181.836 77.5483V72.6596C181.836 71.9202 181.425 71.2217 180.808 70.852L163.512 60.8278C163.193 60.6461 162.832 60.5505 162.465 60.5505C162.097 60.5505 161.736 60.6461 161.417 60.8278L143.998 70.8929C143.34 71.2626 142.93 71.9611 142.93 72.7008V92.7905C142.93 93.5299 143.34 94.2284 143.998 94.598L161.294 104.458C161.951 104.828 162.732 104.828 163.348 104.458L173.824 98.6248C174.153 98.4602 174.358 98.0905 174.358 97.7208C174.358 97.3512 174.153 96.9815 173.824 96.8169L156.323 86.7514C155.994 86.5463 155.789 86.2175 155.789 85.8478V79.5621C155.789 79.1924 155.994 78.8227 156.323 78.6581L161.787 75.5357C161.947 75.435 162.132 75.3816 162.321 75.3816C162.51 75.3816 162.695 75.435 162.855 75.5357L168.319 78.6581C168.648 78.8636 168.853 79.192 168.853 79.5621V84.4921C168.853 84.8618 169.059 85.2314 169.387 85.3957C169.716 85.6011 170.127 85.6011 170.455 85.3957L180.808 79.3563Z" fill="#333333"/>
<path d="M162.197 78.4114C162.258 78.3713 162.33 78.3499 162.403 78.3499C162.476 78.3499 162.547 78.3713 162.608 78.4114L165.936 80.3423C166.059 80.4241 166.141 80.5474 166.141 80.712V84.5738C166.141 84.7381 166.059 84.8614 165.936 84.9435L162.608 86.8744C162.547 86.9146 162.476 86.936 162.403 86.936C162.33 86.936 162.258 86.9146 162.197 86.8744L158.87 84.9435C158.746 84.8614 158.664 84.7381 158.664 84.5738V80.712C158.664 80.5474 158.746 80.4241 158.87 80.3423L162.197 78.4114Z" fill="#539E43"/>
<mask id="mask0_29_72" style="mask-type:alpha" maskUnits="userSpaceOnUse" x="47" y="60" width="40" height="45">
<path d="M68.2398 60.9099C67.9205 60.7282 67.5595 60.6327 67.1922 60.6327C66.8249 60.6327 66.4639 60.7282 66.1446 60.9099L48.8486 70.8926C48.191 71.2623 47.8213 71.9607 47.8213 72.7001V92.708C47.8213 93.4474 48.2322 94.1459 48.8486 94.5156L66.1446 104.499C66.4639 104.681 66.8249 104.776 67.1922 104.776C67.5595 104.776 67.9205 104.681 68.2398 104.499L85.5362 94.5156C86.1934 94.1459 86.5635 93.4474 86.5635 92.708V72.7005C86.5635 71.9611 86.1522 71.2626 85.5362 70.8929L68.2398 60.9099Z" fill="white"/>
</mask>
<g mask="url(#mask0_29_72)">
<path d="M68.2398 60.9099C67.9205 60.7282 67.5595 60.6327 67.1922 60.6327C66.8249 60.6327 66.4639 60.7282 66.1446 60.9099L48.8486 70.8926C48.191 71.2623 47.8213 71.9607 47.8213 72.7001V92.708C47.8213 93.4474 48.2322 94.1459 48.8486 94.5156L66.1446 104.499C66.4639 104.681 66.8249 104.776 67.1922 104.776C67.5595 104.776 67.9205 104.681 68.2398 104.499L85.5362 94.5156C86.1934 94.1459 86.5635 93.4474 86.5635 92.708V72.7005C86.5635 71.9611 86.1522 71.2626 85.5362 70.8929L68.2398 60.9099Z" fill="url(#paint0_linear_29_72)"/>
<path d="M85.577 70.8929L68.1988 60.9099C68.0281 60.8237 67.8491 60.7549 67.6646 60.7045L48.1909 94.0645C48.3522 94.2614 48.5471 94.4284 48.7664 94.5575L66.1446 104.541C66.6376 104.828 67.2128 104.911 67.7467 104.746L86.0291 71.3042C85.9058 71.14 85.7412 71.0163 85.577 70.8933V70.8929Z" fill="url(#paint1_linear_29_72)"/>
<path fill-rule="evenodd" clip-rule="evenodd" d="M85.6187 94.516C86.1117 94.2284 86.4814 93.7353 86.646 93.2014L67.5825 60.6632C67.0895 60.5811 66.5552 60.622 66.1038 60.9096L48.8486 70.852L67.4592 104.787C67.7299 104.743 67.9927 104.66 68.2398 104.541L85.6183 94.5163L85.6187 94.516Z" fill="url(#paint2_linear_29_72)"/>
<path fill-rule="evenodd" clip-rule="evenodd" d="M85.6189 94.516L68.2816 104.499C68.0368 104.624 67.773 104.707 67.501 104.746L67.8298 105.362L87.0567 94.2287V93.982L86.5637 93.1602C86.4816 93.7354 86.1119 94.2284 85.6189 94.516Z" fill="url(#paint3_linear_29_72)"/>
<path fill-rule="evenodd" clip-rule="evenodd" d="M85.6189 94.516L68.2816 104.499C68.0368 104.624 67.773 104.707 67.501 104.746L67.8298 105.362L87.0567 94.2287V93.982L86.5637 93.1602C86.4816 93.7354 86.1119 94.2284 85.6189 94.516Z" fill="url(#paint4_linear_29_72)"/>
</g>
<defs>
<linearGradient id="paint0_linear_29_72" x1="74.2388" y1="68.352" x2="55.2807" y2="98.1409" gradientUnits="userSpaceOnUse">
<stop stop-color="#41873F"/>
<stop offset="0.3288" stop-color="#418B3D"/>
<stop offset="0.6352" stop-color="#419637"/>
<stop offset="0.9319" stop-color="#3FA92D"/>
<stop offset="1" stop-color="#3FAE2A"/>
</linearGradient>
<linearGradient id="paint1_linear_29_72" x1="64.5662" y1="85.048" x2="112.046" y2="59.2521" gradientUnits="userSpaceOnUse">
<stop offset="0.1376" stop-color="#41873F"/>
<stop offset="0.4032" stop-color="#54A044"/>
<stop offset="0.7136" stop-color="#66B848"/>
<stop offset="0.9081" stop-color="#6CC04A"/>
</linearGradient>
<linearGradient id="paint2_linear_29_72" x1="47.1897" y1="82.705" x2="87.2126" y2="82.705" gradientUnits="userSpaceOnUse">
<stop offset="0.09192" stop-color="#6CC04A"/>
<stop offset="0.2864" stop-color="#66B848"/>
<stop offset="0.5968" stop-color="#54A044"/>
<stop offset="0.8624" stop-color="#41873F"/>
</linearGradient>
<linearGradient id="paint3_linear_29_72" x1="47.1902" y1="99.2947" x2="87.2126" y2="99.2947" gradientUnits="userSpaceOnUse">
<stop offset="0.09192" stop-color="#6CC04A"/>
<stop offset="0.2864" stop-color="#66B848"/>
<stop offset="0.5968" stop-color="#54A044"/>
<stop offset="0.8624" stop-color="#41873F"/>
</linearGradient>
<linearGradient id="paint4_linear_29_72" x1="93.0433" y1="67.4059" x2="82.9041" y2="120.535" gradientUnits="userSpaceOnUse">
<stop stop-color="#41873F"/>
<stop offset="0.3288" stop-color="#418B3D"/>
<stop offset="0.6352" stop-color="#419637"/>
<stop offset="0.9319" stop-color="#3FA92D"/>
<stop offset="1" stop-color="#3FAE2A"/>
</linearGradient>
</defs>
</svg>
