<svg width="128" height="128" viewBox="0 0 128 128" fill="none" xmlns="http://www.w3.org/2000/svg">
<path d="M125.58 76.6476C124.836 74.3939 122.886 72.8239 120.365 72.4469C119.176 72.2695 117.815 72.3452 116.204 72.6774C113.395 73.2567 111.312 73.4772 109.792 73.5202C115.53 63.8304 120.197 52.7805 122.884 42.3789C127.228 25.5604 124.906 17.8984 122.194 14.4325C115.015 5.25953 104.541 0.33137 91.9042 0.180304C85.1638 0.0980339 79.2458 1.42897 76.1591 2.38582C73.2848 1.87902 70.1941 1.5958 66.9512 1.54334C60.8733 1.44645 55.5026 2.77137 50.9135 5.49458C48.3723 4.63577 44.2952 3.42465 39.5864 2.65155C28.5112 0.833301 19.5854 2.25023 13.0565 6.8625C5.15062 12.4471 1.48546 22.1498 2.1634 35.7013C2.37839 40.004 4.78542 53.0946 8.57499 65.5099C10.753 72.6456 13.0755 78.5716 15.4779 83.1242C18.8848 89.58 22.5302 93.3819 26.6227 94.7469C28.9168 95.5114 33.0845 96.0463 37.4683 92.3961C38.0238 93.0686 38.7648 93.7373 39.7489 94.3582C40.9981 95.1462 42.526 95.79 44.0516 96.1716C49.5505 97.5464 54.7011 97.2024 59.0952 95.2758C59.1221 96.0572 59.1431 96.8039 59.1608 97.4486C59.1901 98.4946 59.2187 99.52 59.2571 100.479C59.5174 106.964 59.9586 112.005 61.2657 115.533C61.3374 115.727 61.434 116.023 61.536 116.336C62.1879 118.333 63.2786 121.675 66.0526 124.293C68.9257 127.005 72.4005 127.837 75.5829 127.837C77.179 127.837 78.702 127.627 80.0376 127.341C84.7992 126.321 90.2066 124.766 94.1183 119.196C97.8164 113.931 99.6143 106 99.9397 93.5037C99.9818 93.1505 100.021 92.8131 100.058 92.4915C100.084 92.2745 100.109 92.0526 100.135 91.8314L101.007 91.9079L101.231 91.9231C106.081 92.1441 112.011 91.1156 115.652 89.424C118.53 88.0885 127.751 83.2205 125.58 76.6476Z" fill="black"/>
<path d="M117.288 77.926C102.869 80.9004 101.878 76.0184 101.878 76.0184C117.102 53.4277 123.466 24.7523 117.974 17.7341C102.991 -1.41005 77.0537 7.64392 76.6209 7.87898L76.4816 7.90392C73.6328 7.31255 70.4446 6.96025 66.8615 6.90177C60.3369 6.79485 55.3878 8.61224 51.6324 11.4601C51.6324 11.4601 5.36327 -7.60091 7.51518 35.433C7.97297 44.5882 20.6371 104.705 35.7423 86.5469C41.2633 79.9071 46.5976 74.293 46.5976 74.293C49.2471 76.0531 52.419 76.9509 55.7442 76.6284L56.0024 76.4091C55.9222 77.2335 55.9589 78.0398 56.1059 78.9944C52.2146 83.3421 53.358 84.1054 45.5791 85.7067C37.7079 87.3289 42.3319 90.2169 45.3509 90.9717C49.0109 91.887 57.4784 93.1835 63.1997 85.1744L62.9716 86.0882C64.4963 87.3094 65.5669 94.0317 65.3875 100.125C65.208 106.219 65.0882 110.403 66.2896 113.671C67.491 116.939 68.6883 124.291 78.9144 122.1C87.4593 120.269 91.8872 115.524 92.5032 107.609C92.9404 101.981 93.9296 102.813 93.9921 97.782L94.7856 95.4002C95.7006 87.772 94.9309 85.3111 100.195 86.4557L101.475 86.5681C105.349 86.7444 110.421 85.9449 113.397 84.5615C119.806 81.5872 123.607 76.6212 117.288 77.926H117.288Z" fill="#336791"/>
<path d="M54.3405 39.5273C53.0414 39.3464 51.8644 39.5138 51.2691 39.9644C50.934 40.2181 50.8305 40.512 50.8027 40.7143C50.7278 41.2501 51.1034 41.8423 51.3338 42.1479C51.9863 43.0127 52.9397 43.6072 53.8833 43.7382C54.0201 43.7572 54.1559 43.7663 54.2912 43.7663C55.865 43.7663 57.2954 42.5412 57.4215 41.6368C57.5792 40.5042 55.9349 39.7492 54.3405 39.5273Z" fill="white"/>
<path d="M97.3876 39.5631H97.3873C97.2635 38.6754 95.6835 38.4223 94.1843 38.6307C92.6874 38.8393 91.2355 39.515 91.3567 40.4048C91.4542 41.0967 92.7031 42.278 94.1823 42.2777C94.307 42.2777 94.4331 42.2694 94.5601 42.2517C95.5473 42.1149 96.2717 41.488 96.6157 41.1265C97.14 40.5762 97.4429 39.9622 97.3876 39.5631Z" fill="white"/>
<path d="M122.086 77.5881C121.537 75.9255 119.767 75.3903 116.827 75.9977C108.097 77.7993 104.971 76.5512 103.944 75.7953C110.73 65.458 116.312 52.9631 119.323 41.3045C120.75 35.7822 121.538 30.6536 121.602 26.4736C121.673 21.8849 120.892 18.5135 119.28 16.4539C112.782 8.15071 103.245 3.69696 91.7008 3.57456C83.7645 3.48541 77.0591 5.51664 75.7591 6.08766C73.0216 5.40685 70.0372 4.98891 66.7885 4.9356C60.8304 4.83928 55.6807 6.26567 51.4167 9.17292C49.5647 8.4838 44.7781 6.8407 38.9249 5.89789C28.8049 4.26826 20.7634 5.50288 15.0246 9.5685C8.17698 14.4198 5.01576 23.0917 5.62834 35.3427C5.83444 39.4648 8.18271 52.1444 11.8891 64.2876C16.7677 80.27 22.0705 89.3179 27.6505 91.1789C28.3035 91.3968 29.0569 91.5493 29.887 91.5493C31.9225 91.5493 34.4179 90.6317 37.0144 87.5103C41.3271 82.3219 45.3537 77.9742 46.838 76.3944C49.0315 77.572 51.4408 78.2293 53.9057 78.2952C53.91 78.3597 53.9166 78.4242 53.9224 78.4884C53.4279 79.0749 53.0223 79.5889 52.6766 80.0278C50.969 82.1955 50.6135 82.6467 45.1166 83.7786C43.5532 84.1011 39.3999 84.9571 39.3394 87.8681C39.2732 91.0485 44.2481 92.3843 44.8151 92.5259C46.7904 93.0204 48.6932 93.2643 50.508 93.2643C54.9219 93.264 58.8058 91.8136 61.91 89.0069C61.8142 100.346 62.2872 111.518 63.6485 114.923C64.7633 117.709 67.4874 124.52 76.0919 124.52C77.354 124.52 78.744 124.373 80.2728 124.045C89.2525 122.12 93.1518 118.151 94.6605 109.401C95.4677 104.725 96.8531 93.5581 97.5044 87.5685C98.8795 87.9973 100.65 88.1937 102.564 88.1934C106.555 88.1934 111.16 87.3455 114.049 86.0048C117.293 84.4982 123.148 80.8003 122.086 77.5881ZM100.702 37.1125C100.672 38.8809 100.429 40.4861 100.171 42.1619C99.8931 43.9641 99.6058 45.8274 99.5336 48.0894C99.4622 50.2906 99.7371 52.5792 100.003 54.7922C100.54 59.2623 101.092 63.8645 98.9574 68.4057C98.6258 67.8166 98.3056 67.1739 98.0121 66.4622C97.7469 65.8192 97.171 64.7864 96.3738 63.3568C93.2711 57.7929 86.0055 44.7633 89.7249 39.4465C90.8325 37.8635 93.644 36.2368 100.702 37.1125ZM92.1471 7.15544C102.491 7.38391 110.673 11.2535 116.466 18.656C120.909 24.334 116.017 50.1702 101.853 72.459C101.713 72.2812 101.57 72.1018 101.423 71.9178C101.364 71.8441 101.304 71.7693 101.244 71.6936C104.904 65.6489 104.188 59.6685 103.551 54.3659C103.289 52.1899 103.042 50.1346 103.105 48.2043C103.17 46.1576 103.441 44.403 103.702 42.706C104.024 40.6146 104.351 38.4509 104.261 35.9C104.328 35.6325 104.355 35.3163 104.32 34.9411C104.09 32.4948 101.297 25.1745 95.6047 18.5479C92.4914 14.9241 87.9505 10.8682 81.7507 8.13265C84.4175 7.57998 88.0643 7.06457 92.1471 7.15544ZM34.2668 85.2257C31.4063 88.665 29.4307 88.0059 28.7811 87.7895C24.5481 86.3775 19.6368 77.4313 15.3066 63.2445C11.5598 50.9691 9.37003 38.6255 9.19689 35.1641C8.64967 24.2174 11.3032 16.5881 17.0842 12.4884C26.4922 5.81648 41.96 9.80986 48.1752 11.8354C48.0858 11.9234 47.9929 12.0059 47.9044 12.0954C37.7055 22.3957 37.9474 39.994 37.9724 41.0695C37.9715 41.4846 38.0062 42.0722 38.0541 42.8806C38.2295 45.8403 38.556 51.3492 37.6837 57.5879C36.8728 63.3852 38.6598 69.0595 42.5858 73.1558C42.9923 73.5798 43.4165 73.9779 43.8548 74.3526C42.1071 76.2242 38.3092 80.3626 34.2668 85.2257ZM45.1657 70.6834C42.0013 67.382 40.5643 62.7896 41.2225 58.0827C42.1438 51.4922 41.8035 45.7526 41.6209 42.669C41.5954 42.2376 41.5727 41.8595 41.5593 41.5611C43.0493 40.2402 49.9539 36.5404 54.8778 37.6686C57.1252 38.1835 58.4939 39.7133 59.0632 42.3454C62.0095 55.9709 59.4534 61.6501 57.3995 66.2136C56.9761 67.1539 56.5762 68.0425 56.2345 68.9621L55.9699 69.6727C55.2997 71.4697 54.6763 73.1403 54.2899 74.727C50.9263 74.7167 47.6538 73.2799 45.1657 70.6834ZM45.6819 89.0594C44.6998 88.814 43.8164 88.3878 43.2981 88.0343C43.731 87.8305 44.5015 87.5536 45.8376 87.2784C52.3042 85.9469 53.3026 85.0075 55.4835 82.2385C55.9837 81.6038 56.5504 80.884 57.3353 80.0074C57.3356 80.0069 57.3358 80.0066 57.3361 80.0063C58.5054 78.6974 59.04 78.9193 60.0098 79.3215C60.7958 79.6468 61.5611 80.6318 61.8716 81.7159C62.0183 82.2278 62.1835 83.1999 61.6437 83.9558C57.0879 90.3344 50.4496 90.2524 45.6819 89.0594ZM79.5237 120.551C71.6129 122.246 68.812 118.21 66.9663 113.596C65.7749 110.617 65.1896 97.1832 65.605 82.3485C65.6104 82.151 65.5823 81.9604 65.5278 81.7812C65.4805 81.4352 65.4077 81.0852 65.3068 80.7329C64.6888 78.5744 63.1836 76.7688 61.3777 76.0204C60.6602 75.7231 59.343 75.1776 57.7604 75.5823C58.0981 74.1918 58.6834 72.6218 59.3178 70.9214L59.5841 70.2059C59.8839 69.3995 60.2597 68.5642 60.6576 67.6802C62.8069 62.9051 65.7506 56.3651 62.5558 41.5901C61.359 36.0562 57.3631 33.3539 51.3052 33.9814C47.6733 34.3572 44.351 35.8226 42.6938 36.6628C42.3375 36.8433 42.0116 37.0176 41.7072 37.1876C42.1696 31.6116 43.9173 21.1915 50.4541 14.5987C54.5696 10.448 60.051 8.39809 66.7295 8.50845C79.8884 8.72402 88.3266 15.477 93.0888 21.1043C97.1922 25.9536 99.4144 30.8382 100.301 33.4726C93.6323 32.7946 89.0965 34.1112 86.797 37.3983C81.7949 44.5486 89.5337 58.4272 93.253 65.0971C93.935 66.3197 94.5238 67.376 94.7089 67.8249C95.9201 70.7603 97.488 72.7198 98.6329 74.1505C98.9838 74.5888 99.3244 75.0139 99.5832 75.3851C97.5634 75.9676 93.9353 77.3129 94.2658 84.0381C93.9992 87.4128 92.1027 103.212 91.1395 108.794C89.8679 116.169 87.1542 118.916 79.5237 120.551ZM112.544 82.7639C110.479 83.7227 107.022 84.442 103.739 84.5962C100.112 84.7662 98.2657 84.19 97.8315 83.8357C97.6274 79.6448 99.1876 79.2068 100.838 78.7433C101.098 78.6702 101.351 78.5994 101.595 78.514C101.747 78.6375 101.913 78.7602 102.095 78.8803C105.01 80.8043 110.21 81.0119 117.55 79.4969C117.576 79.4912 117.603 79.486 117.63 79.4806C116.64 80.4062 114.946 81.6485 112.544 82.7639Z" fill="white"/>
</svg>
