<svg width="150" height="134" viewBox="0 0 150 134" fill="none" xmlns="http://www.w3.org/2000/svg">
<path d="M123.33 43.5273C121.774 42.9917 120.162 42.485 118.501 42.0057C118.774 40.8921 119.025 39.7928 119.247 38.7123C122.903 20.9695 120.513 6.67574 112.352 1.96964C104.527 -2.5429 91.7293 2.16214 78.8045 13.4102C77.5616 14.4918 76.3152 15.637 75.0694 16.8372C74.2393 16.0431 73.4106 15.2757 72.5839 14.5418C59.0383 2.51458 45.4609 -2.55384 37.3082 2.16588C29.4905 6.6915 27.1753 20.129 30.4655 36.944C30.7833 38.5681 31.1547 40.2267 31.5746 41.9131C29.6531 42.4585 27.798 43.0401 26.023 43.6587C10.1422 49.1954 0 57.8729 0 66.8736C0 76.1697 10.8876 85.4938 27.4287 91.1475C28.7341 91.5936 30.0885 92.0155 31.4844 92.416C31.0313 94.2399 30.6372 96.0272 30.3064 97.7704C27.1692 114.294 29.6192 127.414 37.416 131.911C45.4695 136.555 58.9855 131.781 72.1466 120.277C73.1868 119.367 74.2308 118.403 75.2766 117.392C76.6322 118.697 77.9856 119.933 79.3318 121.092C92.0799 132.062 104.671 136.491 112.46 131.982C120.506 127.324 123.121 113.23 119.726 96.0827C119.467 94.7731 119.165 93.4351 118.826 92.0734C119.775 91.7928 120.707 91.5031 121.616 91.202C138.812 85.5045 150 76.2939 150 66.8736C150 57.8403 139.531 49.1044 123.33 43.5273ZM119.6 85.1195C118.78 85.391 117.939 85.6535 117.081 85.9079C115.183 79.8981 112.621 73.5075 109.485 66.9049C112.477 60.4596 114.94 54.1507 116.785 48.1798C118.32 48.6238 119.809 49.0921 121.244 49.5863C135.125 54.3648 143.592 61.4298 143.592 66.8736C143.592 72.6723 134.448 80.1998 119.6 85.1195ZM113.44 97.3272C114.941 104.91 115.155 111.765 114.161 117.124C113.267 121.94 111.471 125.15 109.249 126.436C104.522 129.173 94.4132 125.616 83.5108 116.234C82.261 115.159 81.0021 114.01 79.7392 112.795C83.9658 108.172 88.19 102.798 92.3127 96.8303C99.5641 96.1868 106.415 95.1348 112.628 93.6987C112.934 94.933 113.206 96.1436 113.44 97.3272ZM51.1384 125.963C46.5199 127.595 42.8414 127.641 40.6179 126.359C35.8864 123.63 33.9194 113.096 36.6025 98.9655C36.9098 97.3472 37.2756 95.6849 37.6972 93.9857C43.8419 95.3444 50.6426 96.3222 57.9113 96.9115C62.0618 102.752 66.408 108.119 70.7878 112.82C69.8309 113.744 68.8777 114.623 67.9299 115.452C62.1101 120.539 56.2781 124.148 51.1384 125.963ZM29.5011 85.084C22.187 82.5841 16.1467 79.335 12.0064 75.7895C8.28602 72.6034 6.40768 69.4403 6.40768 66.8736C6.40768 61.4117 14.5509 54.4449 28.1322 49.7097C29.7802 49.1351 31.5052 48.5936 33.2954 48.085C35.1724 54.1907 37.6347 60.5744 40.6061 67.0296C37.5963 73.5806 35.099 80.066 33.2036 86.2433C31.9274 85.8764 30.6909 85.4903 29.5011 85.084ZM36.7541 35.7134C33.9352 21.3067 35.8074 10.4388 40.5185 7.7117C45.5368 4.80649 56.6335 8.9487 68.3291 19.3336C69.0766 19.9973 69.8272 20.6921 70.5798 21.4108C66.2216 26.0905 61.9152 31.4182 57.8016 37.2238C50.747 37.8777 43.9941 38.928 37.7853 40.3346C37.3949 38.7644 37.0492 37.2216 36.7541 35.7134ZM101.457 51.6903C99.9731 49.1266 98.4494 46.6234 96.896 44.1887C101.682 44.7937 106.267 45.5968 110.573 46.5797C109.281 50.7229 107.669 55.055 105.773 59.496C104.412 56.9128 102.973 54.3082 101.457 51.6903ZM75.0716 25.9904C78.0272 29.1925 80.9872 32.7676 83.8985 36.6465C80.9647 36.508 77.9946 36.4359 75 36.4359C72.0337 36.4359 69.0855 36.5064 66.1698 36.6425C69.0841 32.7996 72.0697 29.2293 75.0716 25.9904ZM48.5167 51.7346C47.0341 54.3055 45.6217 56.8959 44.2824 59.4912C42.4164 55.0657 40.82 50.7139 39.516 46.5118C43.7957 45.5541 48.3595 44.771 53.115 44.1775C51.5397 46.6347 50.0034 49.1562 48.5167 51.7341V51.7346ZM53.2519 90.0269C48.3387 89.4788 43.7062 88.736 39.4276 87.8047C40.7524 83.5276 42.3841 79.0829 44.2896 74.5621C45.6324 77.1555 47.0504 79.747 48.5421 82.3235H48.5424C50.0619 84.9483 51.6361 87.5195 53.2519 90.0269ZM75.2488 108.209C72.2117 104.932 69.1824 101.307 66.2238 97.4081C69.0959 97.5207 72.024 97.5784 75 97.5784C78.0574 97.5784 81.0798 97.5095 84.0547 97.3771C81.1337 101.346 78.1845 104.977 75.2488 108.209ZM105.834 74.3317C107.839 78.9014 109.529 83.3229 110.871 87.527C106.522 88.5192 101.826 89.3183 96.8783 89.9121C98.4355 87.4445 99.9726 84.8984 101.483 82.2794C103.011 79.6297 104.462 76.976 105.834 74.3317ZM95.9324 79.0781C93.5876 83.1437 91.1803 87.0248 88.7365 90.6883C84.2854 91.0065 79.6869 91.1705 75 91.1705C70.3321 91.1705 65.7915 91.0255 61.4191 90.7417C58.8768 87.0301 56.4172 83.1376 54.0874 79.1131H54.0879C51.7642 75.0996 49.6256 71.0522 47.6877 67.0274C49.625 62.9934 51.7581 58.9414 54.0684 54.9351L54.0679 54.9359C56.3844 50.9189 58.8223 47.0453 61.3412 43.357C65.8022 43.0198 70.3767 42.8438 74.9997 42.8438H75C79.6439 42.8438 84.2242 43.0211 88.6839 43.3613C91.1643 47.0226 93.5857 50.8837 95.9113 54.9012C98.2633 58.9638 100.424 62.9888 102.378 66.9364C100.43 70.9518 98.2739 75.0173 95.9324 79.0781ZM109.151 7.52106C114.174 10.4177 116.128 22.1 112.972 37.419C112.77 38.3964 112.544 39.3921 112.297 40.4011C106.074 38.9651 99.3166 37.8966 92.2414 37.2329C88.1197 31.3634 83.8486 26.0275 79.5614 21.4079C80.714 20.299 81.8651 19.2417 83.0113 18.244C94.0853 8.60667 104.435 4.80168 109.151 7.52106ZM75 53.4792C82.3974 53.4792 88.3945 59.4759 88.3945 66.8736C88.3945 74.2711 82.3974 80.2681 75 80.2681C67.6026 80.2681 61.6055 74.2711 61.6055 66.8736C61.6055 59.4759 67.6026 53.4792 75 53.4792Z" fill="#00D8FF"/>
</svg>
