<svg width="126" height="126" viewBox="0 0 126 126" fill="none" xmlns="http://www.w3.org/2000/svg">
<path d="M125.963 0H0.0369141C0.016527 0 0 0.016527 0 0.0369141V125.963C0 125.983 0.016527 126 0.0369141 126H125.963C125.983 126 126 125.983 126 125.963V0.0369141C126 0.016527 125.983 0 125.963 0Z" fill="#3178C6"/>
<path d="M57.3398 69.8906H73.0898V59.8008H29.0391V69.8906H44.7891V114.926H57.3398V69.8906ZM78.0117 112.465C80.0051 113.498 82.4414 114.261 85.1484 114.778C87.8555 115.295 90.8086 115.541 93.7617 115.541C96.7148 115.541 99.4219 115.27 102.129 114.704C104.836 114.138 107.051 113.203 109.02 111.997C111.013 110.693 112.711 109.044 113.695 106.829C114.68 104.614 115.443 102.154 115.443 98.9543C115.443 96.7148 115.098 94.7707 114.434 93.048C113.769 91.3254 112.809 89.8488 111.48 88.6184C110.225 87.3141 108.773 86.1574 107.051 85.173C105.328 84.1887 103.359 83.1551 101.145 82.2199C99.5203 81.5555 98.1914 80.9156 96.7148 80.2758C95.4352 79.6359 94.3277 78.9961 93.5156 78.3562C92.6051 77.6918 91.916 77.0027 91.4238 76.2891C90.9316 75.5508 90.6855 74.7387 90.6855 73.8281C90.6855 72.9914 90.9046 72.2285 91.35 71.5395C91.7954 70.8504 92.4082 70.2844 93.1957 69.7922C93.9832 69.3 94.9676 68.9309 96.1488 68.6602C97.3055 68.3894 98.5852 68.2664 100.086 68.2664C101.12 68.2664 102.203 68.3427 103.286 68.4977C104.418 68.6528 105.574 68.8915 106.731 69.2114C107.887 69.5313 109.02 69.9251 110.176 70.4173C111.259 70.9095 112.268 71.4755 113.129 72.1153V60.5489C111.259 59.8352 109.192 59.2938 106.977 58.9493C104.762 58.6048 102.301 58.4325 99.348 58.4325C96.3949 58.4325 93.6879 58.7524 90.9809 59.3677C88.2738 59.9829 86.059 60.9673 84.0902 62.3208C82.0969 63.6497 80.6449 65.2739 79.4145 67.4887C78.2578 69.5559 77.6918 71.9184 77.6918 74.8716C77.6918 78.563 78.75 81.7622 80.891 84.2231C83.0074 86.9301 86.3051 88.8989 90.4887 90.8676C92.1867 91.5567 93.6879 92.2458 95.1645 92.9102C96.641 93.5747 97.8715 94.2637 98.8559 94.9774C99.9141 95.6911 100.751 96.4786 101.317 97.3153C101.932 98.152 102.252 99.1364 102.252 100.268C102.252 101.056 102.06 101.794 101.686 102.483C101.312 103.172 100.726 103.763 99.9387 104.255C99.1512 104.747 98.1914 105.141 96.9855 105.436C95.8289 105.707 94.5246 105.855 92.802 105.855C90.0949 105.855 87.3879 105.387 84.927 104.452C82.2199 103.517 79.759 102.114 78.0117 100.652V112.465Z" fill="white"/>
</svg>
